<svg width="140" height="140" viewBox="0 0 140 140" fill="none" xmlns="http://www.w3.org/2000/svg">
<path d="M137.906 86.9333C128.555 124.434 90.5694 147.256 53.0603 137.904C15.567 128.555 -7.25753 90.5711 2.09663 53.0738C11.4426 15.5693 49.4287 -7.25437 86.9261 2.09464C124.432 11.4436 147.256 49.4319 137.905 86.934L137.905 86.9333H137.906Z" fill="#F7931A"/>
<path d="M49.1265 30.5006C54.8821 28.1591 61.1704 27.4435 67.305 28.432C73.4396 29.4204 79.1848 32.0749 83.9134 36.1057C88.642 40.1366 92.1723 45.3888 94.1189 51.2891C96.0656 57.1893 96.3538 63.511 94.9521 69.5639L115.513 90.1187L109.868 95.759L85.9841 71.8774L86.6942 69.5798C88.0899 65.0703 88.2274 60.2653 87.092 55.6834C85.9566 51.1014 83.5913 46.9165 80.2514 43.5802C77.1733 40.4985 73.368 38.2423 69.1871 37.0201C65.0063 35.7979 60.5848 35.6492 56.3312 36.5876L73.1982 53.4527L53.4509 73.1978L36.584 56.3247C35.6459 60.5781 35.7953 64.9993 37.0183 69.1797C38.2414 73.3601 40.4985 77.1648 43.5813 80.2421C46.918 83.5817 51.1034 85.9467 55.6858 87.082C60.2683 88.2173 65.0738 88.0797 69.5839 86.6842L71.8777 85.9742L95.7659 109.86L90.125 115.5L69.5639 94.9452C63.5103 96.3468 57.188 96.0586 51.287 94.1121C45.3861 92.1657 40.1333 88.6358 36.102 83.9077C32.0708 79.1797 29.4159 73.4351 28.4274 67.3012C27.4388 61.1673 28.1545 54.8797 30.4962 49.1248L31.5095 46.6357L38.1797 46.6437L53.4509 61.9132L61.9163 53.4527L46.6451 38.1832L46.6371 31.5138L49.1265 30.5006Z" fill="#121212"/>
</svg>
